<svg xmlns="http://www.w3.org/2000/svg" viewBox="0 0 512 512"><rect width="512" height="512" rx="112" fill="#374df5"/><defs><clipPath id="bc"><circle cx="256" cy="256" r="178"/></clipPath><radialGradient id="sh" cx="38%" cy="32%" r="75%"><stop offset="0" stop-color="#fff"/><stop offset=".75" stop-color="#f1f3f8"/><stop offset="1" stop-color="#d5dae6"/></radialGradient></defs><circle cx="256" cy="256" r="178" fill="url(#sh)"/><g clip-path="url(#bc)"><polygon points="256.0,204.0 305.5,239.9 286.6,298.1 225.4,298.1 206.5,239.9" fill="#141821" stroke="#141821" stroke-width="5" stroke-linejoin="round"/><polygon points="256.0,145.9 206.5,110.0 225.4,51.9 286.6,51.9 305.5,110.0" fill="#141821" stroke="#141821" stroke-width="5" stroke-linejoin="round"/><line x1="256.0" y1="204.0" x2="256.0" y2="145.9" stroke="#141821" stroke-width="9" stroke-linecap="round"/><polygon points="360.7,222.0 379.6,163.8 440.7,163.8 459.6,222.0 410.1,257.9" fill="#141821" stroke="#141821" stroke-width="5" stroke-linejoin="round"/><line x1="305.5" y1="239.9" x2="360.7" y2="222.0" stroke="#141821" stroke-width="9" stroke-linecap="round"/><polygon points="320.7,345.1 381.8,345.1 400.7,403.2 351.3,439.1 301.8,403.2" fill="#141821" stroke="#141821" stroke-width="5" stroke-linejoin="round"/><line x1="286.6" y1="298.1" x2="320.7" y2="345.1" stroke="#141821" stroke-width="9" stroke-linecap="round"/><polygon points="191.3,345.1 210.2,403.2 160.7,439.1 111.3,403.2 130.2,345.1" fill="#141821" stroke="#141821" stroke-width="5" stroke-linejoin="round"/><line x1="225.4" y1="298.1" x2="191.3" y2="345.1" stroke="#141821" stroke-width="9" stroke-linecap="round"/><polygon points="151.3,222.0 101.9,257.9 52.4,222.0 71.3,163.8 132.4,163.8" fill="#141821" stroke="#141821" stroke-width="5" stroke-linejoin="round"/><line x1="206.5" y1="239.9" x2="151.3" y2="222.0" stroke="#141821" stroke-width="9" stroke-linecap="round"/><line x1="305.5" y1="110.0" x2="366.4" y2="104.0" stroke="#141821" stroke-width="9" stroke-linecap="round"/><line x1="379.6" y1="163.8" x2="366.4" y2="104.0" stroke="#141821" stroke-width="9" stroke-linecap="round"/><line x1="366.4" y1="104.0" x2="371.1" y2="97.6" stroke="#141821" stroke-width="9" stroke-linecap="round"/><line x1="410.1" y1="257.9" x2="434.6" y2="314.0" stroke="#141821" stroke-width="9" stroke-linecap="round"/><line x1="381.8" y1="345.1" x2="434.6" y2="314.0" stroke="#141821" stroke-width="9" stroke-linecap="round"/><line x1="434.6" y1="314.0" x2="442.2" y2="316.5" stroke="#141821" stroke-width="9" stroke-linecap="round"/><line x1="301.8" y1="403.2" x2="256.0" y2="443.8" stroke="#141821" stroke-width="9" stroke-linecap="round"/><line x1="210.2" y1="403.2" x2="256.0" y2="443.8" stroke="#141821" stroke-width="9" stroke-linecap="round"/><line x1="256.0" y1="443.8" x2="256.0" y2="451.8" stroke="#141821" stroke-width="9" stroke-linecap="round"/><line x1="130.2" y1="345.1" x2="77.4" y2="314.0" stroke="#141821" stroke-width="9" stroke-linecap="round"/><line x1="101.9" y1="257.9" x2="77.4" y2="314.0" stroke="#141821" stroke-width="9" stroke-linecap="round"/><line x1="77.4" y1="314.0" x2="69.8" y2="316.5" stroke="#141821" stroke-width="9" stroke-linecap="round"/><line x1="132.4" y1="163.8" x2="145.6" y2="104.0" stroke="#141821" stroke-width="9" stroke-linecap="round"/><line x1="206.5" y1="110.0" x2="145.6" y2="104.0" stroke="#141821" stroke-width="9" stroke-linecap="round"/><line x1="145.6" y1="104.0" x2="140.9" y2="97.6" stroke="#141821" stroke-width="9" stroke-linecap="round"/></g></svg>